<svg data-v-423bf9ae="" xmlns="http://www.w3.org/2000/svg" viewBox="0 0 474 90" class="iconLeft"><!----><!----><!----><g data-v-423bf9ae="" id="4b5221cc-066c-4e2d-8045-10ab1121af54" fill="#361414" transform="matrix(5.190311230281897,0,0,5.190311230281897,116.30036402550235,19.567472546596555)"><path d="M4.06 5.74L4.06 5.74L4.06 5.74Q2.27 5.50 1.44 4.77L1.44 4.77L1.44 4.77Q0.62 4.05 0.62 2.70L0.62 2.70L0.62 2.56L0.62 2.56Q0.62 1.11 1.60 0.25L1.60 0.25L1.60 0.25Q2.59-0.60 4.35-0.60L4.35-0.60L4.35-0.60Q6.27-0.60 7.17 0.31L7.17 0.31L7.17 0.31Q8.08 1.22 8.08 3.08L8.08 3.08L8.08 3.40L6.20 3.40L6.20 3.40Q6.20 2.17 5.77 1.60L5.77 1.60L5.77 1.60Q5.33 1.04 4.37 1.04L4.37 1.04L4.24 1.04L4.24 1.04Q3.47 1.04 3.00 1.43L3.00 1.43L3.00 1.43Q2.53 1.82 2.53 2.46L2.53 2.46L2.53 2.55L2.53 2.55Q2.53 3.26 2.98 3.64L2.98 3.64L2.98 3.64Q3.43 4.02 4.66 4.19L4.66 4.19L4.66 4.19Q6.48 4.44 7.33 5.15L7.33 5.15L7.33 5.15Q8.18 5.87 8.18 7.28L8.18 7.28L8.18 7.43L8.18 7.43Q8.18 8.97 7.17 9.83L7.17 9.83L7.17 9.83Q6.17 10.68 4.35 10.68L4.35 10.68L4.35 10.68Q0.52 10.68 0.52 6.96L0.52 6.96L0.52 6.82L2.39 6.82L2.39 6.82Q2.39 9.04 4.28 9.04L4.28 9.04L4.41 9.04L4.41 9.04Q5.28 9.04 5.77 8.62L5.77 8.62L5.77 8.62Q6.26 8.20 6.26 7.50L6.26 7.50L6.26 7.42L6.26 7.42Q6.26 6.69 5.77 6.30L5.77 6.30L5.77 6.30Q5.28 5.91 4.06 5.74ZM15.58 10.50L13.97 10.50L13.83 9.65L13.83 9.65Q12.94 10.68 11.41 10.68L11.41 10.68L11.41 10.68Q10.29 10.68 9.73 10.07L9.73 10.07L9.73 10.07Q9.17 9.45 9.17 8.50L9.17 8.50L9.17 8.36L9.17 8.36Q9.17 7.24 9.85 6.73L9.85 6.73L9.85 6.73Q10.53 6.22 11.76 6.03L11.76 6.03L13.65 5.74L13.65 5.71L13.65 5.71Q13.65 4.98 13.38 4.65L13.38 4.65L13.38 4.65Q13.10 4.31 12.42 4.31L12.42 4.31L12.42 4.31Q11.19 4.31 11.19 5.53L11.19 5.53L9.45 5.53L9.45 5.40L9.45 5.40Q9.45 4.33 10.14 3.61L10.14 3.61L10.14 3.61Q10.84 2.90 12.46 2.90L12.46 2.90L12.46 2.90Q14.11 2.90 14.79 3.61L14.79 3.61L14.79 3.61Q15.47 4.33 15.47 5.71L15.47 5.71L15.47 8.40L15.58 10.50ZM12.04 9.18L12.04 9.18L12.04 9.18Q13.08 9.18 13.65 8.41L13.65 8.41L13.65 6.85L12.10 7.10L12.10 7.10Q10.99 7.28 10.99 8.16L10.99 8.16L10.99 8.27L10.99 8.27Q10.99 8.65 11.26 8.92L11.26 8.92L11.26 8.92Q11.52 9.18 12.04 9.18ZM19.50 1.92L19.50 1.92L19.50 3.08L21.28 3.08L21.28 4.68L19.50 4.68L19.50 10.50L17.68 10.50L17.68 4.68L16.55 4.68L16.55 3.08L17.68 3.08L17.68 1.71L17.68 1.71Q17.68-0.88 20.27-0.88L20.27-0.88L20.27-0.88Q21.06-0.88 21.42-0.70L21.42-0.70L21.42 0.81L21.42 0.81Q21.20 0.70 20.71 0.70L20.71 0.70L20.71 0.70Q20.09 0.70 19.80 0.96L19.80 0.96L19.80 0.96Q19.50 1.22 19.50 1.92ZM29.06 6.61L29.06 7.46L24.16 7.46L24.16 7.46Q24.26 9.27 25.83 9.27L25.83 9.27L25.83 9.27Q26.53 9.27 26.94 8.93L26.94 8.93L26.94 8.93Q27.34 8.58 27.34 8.12L27.34 8.12L29.06 8.12L29.06 8.18L29.06 8.18Q29.06 9.23 28.20 9.95L28.20 9.95L28.20 9.95Q27.34 10.68 25.82 10.68L25.82 10.68L25.82 10.68Q24.09 10.68 23.22 9.66L23.22 9.66L23.22 9.66Q22.34 8.64 22.34 6.97L22.34 6.97L22.34 6.61L22.34 6.61Q22.34 4.94 23.21 3.92L23.21 3.92L23.21 3.92Q24.08 2.90 25.75 2.90L25.75 2.90L25.75 2.90Q27.38 2.90 28.22 3.92L28.22 3.92L28.22 3.92Q29.06 4.94 29.06 6.61L29.06 6.61ZM25.70 4.31L25.70 4.31L25.70 4.31Q24.28 4.31 24.16 6.12L24.16 6.12L27.23 6.12L27.23 6.12Q27.15 4.31 25.70 4.31ZM32.12 4.76L32.12 5.32L32.12 5.32Q32.12 7.24 32.58 8.14L32.58 8.14L32.58 8.14Q33.04 9.04 34.17 9.04L34.17 9.04L34.30 9.04L34.30 9.04Q36.06 9.04 36.06 6.82L36.06 6.82L37.95 6.82L37.95 6.96L37.95 6.96Q37.95 8.88 37.02 9.78L37.02 9.78L37.02 9.78Q36.09 10.68 34.19 10.68L34.19 10.68L34.19 10.68Q32.13 10.68 31.16 9.41L31.16 9.41L31.16 9.41Q30.20 8.13 30.20 5.32L30.20 5.32L30.20 4.76L30.20 4.76Q30.20 1.95 31.16 0.67L31.16 0.67L31.16 0.67Q32.13-0.60 34.19-0.60L34.19-0.60L34.19-0.60Q36.09-0.60 37.02 0.31L37.02 0.31L37.02 0.31Q37.95 1.23 37.95 3.21L37.95 3.21L37.95 3.68L36.06 3.68L36.06 3.68Q36.06 2.32 35.66 1.68L35.66 1.68L35.66 1.68Q35.27 1.04 34.30 1.04L34.30 1.04L34.17 1.04L34.17 1.04Q33.04 1.04 32.58 1.94L32.58 1.94L32.58 1.94Q32.12 2.84 32.12 4.76L32.12 4.76ZM39.35-0.70L41.17-0.70L41.17 3.84L41.17 3.84Q41.97 2.90 43.41 2.90L43.41 2.90L43.41 2.90Q44.56 2.90 45.13 3.61L45.13 3.61L45.13 3.61Q45.70 4.33 45.70 5.42L45.70 5.42L45.70 10.50L43.89 10.50L43.89 5.71L43.89 5.71Q43.89 5.15 43.60 4.82L43.60 4.82L43.60 4.82Q43.30 4.48 42.71 4.48L42.71 4.48L42.71 4.48Q41.69 4.48 41.17 5.33L41.17 5.33L41.17 10.50L39.35 10.50L39.35-0.70ZM53.65 6.61L53.65 7.46L48.75 7.46L48.75 7.46Q48.85 9.27 50.41 9.27L50.41 9.27L50.41 9.27Q51.11 9.27 51.52 8.93L51.52 8.93L51.52 8.93Q51.93 8.58 51.93 8.12L51.93 8.12L53.65 8.12L53.65 8.18L53.65 8.18Q53.65 9.23 52.79 9.95L52.79 9.95L52.79 9.95Q51.93 10.68 50.40 10.68L50.40 10.68L50.40 10.68Q48.68 10.68 47.80 9.66L47.80 9.66L47.80 9.66Q46.93 8.64 46.93 6.97L46.93 6.97L46.93 6.61L46.93 6.61Q46.93 4.94 47.80 3.92L47.80 3.92L47.80 3.92Q48.66 2.90 50.33 2.90L50.33 2.90L50.33 2.90Q51.97 2.90 52.81 3.92L52.81 3.92L52.81 3.92Q53.65 4.94 53.65 6.61L53.65 6.61ZM50.29 4.31L50.29 4.31L50.29 4.31Q48.86 4.31 48.75 6.12L48.75 6.12L51.81 6.12L51.81 6.12Q51.73 4.31 50.29 4.31ZM56.49 6.57L56.49 7.01L56.49 7.01Q56.49 9.09 57.99 9.09L57.99 9.09L57.99 9.09Q58.65 9.09 58.97 8.73L58.97 8.73L58.97 8.73Q59.30 8.37 59.30 7.80L59.30 7.80L61.03 7.80L61.03 8.09L61.03 8.09Q61.03 9.23 60.23 9.95L60.23 9.95L60.23 9.95Q59.44 10.68 57.95 10.68L57.95 10.68L57.95 10.68Q56.31 10.68 55.49 9.68L55.49 9.68L55.49 9.68Q54.67 8.68 54.67 7.01L54.67 7.01L54.67 6.57L54.67 6.57Q54.67 4.89 55.49 3.89L55.49 3.89L55.49 3.89Q56.31 2.90 57.95 2.90L57.95 2.90L57.95 2.90Q59.46 2.90 60.24 3.65L60.24 3.65L60.24 3.65Q61.03 4.41 61.03 5.60L61.03 5.60L61.03 5.91L59.30 5.91L59.30 5.91Q59.30 5.24 58.97 4.86L58.97 4.86L58.97 4.86Q58.65 4.48 57.99 4.48L57.99 4.48L57.99 4.48Q56.49 4.48 56.49 6.57L56.49 6.57ZM64.09 10.50L62.27 10.50L62.27-0.70L64.09-0.70L64.09 6.08L66.63 3.08L68.82 3.08L66.33 5.89L68.82 10.50L66.71 10.50L65.09 7.31L64.09 8.44L64.09 10.50Z"></path></g><defs data-v-423bf9ae=""><linearGradient data-v-423bf9ae="" gradientTransform="rotate(25)" id="9000dff3-d0e5-4f66-982a-a3dc2c9e1bb1" x1="0%" y1="0%" x2="100%" y2="0%"><stop data-v-423bf9ae="" offset="0%" style="stop-color: rgb(240, 0, 121); stop-opacity: 1;"></stop><stop data-v-423bf9ae="" offset="100%" style="stop-color: rgb(242, 160, 65); stop-opacity: 1;"></stop></linearGradient></defs><g data-v-423bf9ae="" id="774018d8-01ed-4612-92a5-57488180a515" transform="matrix(1.1110288578850736,0,0,1.1110288578850736,-3.9875310725021365,-8.888230863080587)" stroke="none" fill="url(#9000dff3-d0e5-4f66-982a-a3dc2c9e1bb1)"><path d="M12.494 89.006H93.5V16.101H61.098v8.1h24.301v56.704H20.595v-8.1h-8.101z"></path><path d="M4.394 64.704h48.604V24.201h-8.101V8H12.494v16.201h-8.1v40.503zm16.201-48.603h16.201v8.101H20.595v-8.101z"></path></g><!----></svg>